<mxfile host="65bd71144e">
    <diagram id="0xgHDgXDM8au59bu7LAc" name="第 1 页">
        <mxGraphModel dx="1485" dy="633" grid="0" gridSize="10" guides="1" tooltips="1" connect="1" arrows="1" fold="1" page="0" pageScale="1" pageWidth="1169" pageHeight="827" math="0" shadow="0">
            <root>
                <mxCell id="0"/>
                <mxCell id="1" parent="0"/>
                <mxCell id="3" value="&lt;font color=&quot;#ffff33&quot; style=&quot;font-size: 20px;&quot;&gt;开始&lt;/font&gt;" style="rounded=1;whiteSpace=wrap;html=1;strokeColor=#FFFF33;" parent="1" vertex="1">
                    <mxGeometry x="360" y="40" width="120" height="40" as="geometry"/>
                </mxCell>
                <mxCell id="4" value="初始化&lt;br&gt;根目录root" style="rounded=0;whiteSpace=wrap;html=1;strokeColor=#FFFF33;fontSize=20;fontColor=#FFFF33;" parent="1" vertex="1">
                    <mxGeometry x="320" y="120" width="200" height="60" as="geometry"/>
                </mxCell>
                <mxCell id="5" value="显示功能菜单" style="rounded=0;whiteSpace=wrap;html=1;strokeColor=#FFFF33;fontSize=20;fontColor=#FFFF33;" parent="1" vertex="1">
                    <mxGeometry x="320" y="240" width="200" height="40" as="geometry"/>
                </mxCell>
                <mxCell id="6" value="输入要执行的操作" style="rounded=0;whiteSpace=wrap;html=1;strokeColor=#FFFF33;fontSize=20;fontColor=#FFFF33;" parent="1" vertex="1">
                    <mxGeometry x="280" y="320" width="280" height="40" as="geometry"/>
                </mxCell>
                <mxCell id="7" value="" style="endArrow=classic;html=1;fontSize=20;fontColor=#FFFF33;rounded=1;entryX=0.5;entryY=0;entryDx=0;entryDy=0;strokeColor=#FFFF33;" parent="1" target="4" edge="1">
                    <mxGeometry width="50" height="50" relative="1" as="geometry">
                        <mxPoint x="420" y="80" as="sourcePoint"/>
                        <mxPoint x="370" y="130" as="targetPoint"/>
                    </mxGeometry>
                </mxCell>
                <mxCell id="8" value="" style="endArrow=classic;html=1;rounded=1;strokeColor=#FFFF33;fontSize=20;fontColor=#FFFF33;entryX=0.5;entryY=0;entryDx=0;entryDy=0;" parent="1" target="5" edge="1">
                    <mxGeometry width="50" height="50" relative="1" as="geometry">
                        <mxPoint x="420" y="180" as="sourcePoint"/>
                        <mxPoint x="370" y="230" as="targetPoint"/>
                    </mxGeometry>
                </mxCell>
                <mxCell id="9" value="" style="endArrow=classic;html=1;rounded=1;strokeColor=#FFFF33;fontSize=20;fontColor=#FFFF33;entryX=0.5;entryY=0;entryDx=0;entryDy=0;" parent="1" target="6" edge="1">
                    <mxGeometry width="50" height="50" relative="1" as="geometry">
                        <mxPoint x="420" y="280" as="sourcePoint"/>
                        <mxPoint x="470" y="230" as="targetPoint"/>
                    </mxGeometry>
                </mxCell>
                <mxCell id="10" value="" style="endArrow=none;html=1;rounded=1;strokeColor=#FFFF33;fontSize=20;fontColor=#FFFF33;" parent="1" edge="1">
                    <mxGeometry width="50" height="50" relative="1" as="geometry">
                        <mxPoint x="420" y="400" as="sourcePoint"/>
                        <mxPoint x="420" y="360" as="targetPoint"/>
                    </mxGeometry>
                </mxCell>
                <mxCell id="11" value="" style="endArrow=none;html=1;rounded=1;strokeColor=#FFFF33;fontSize=20;fontColor=#FFFF33;" parent="1" edge="1">
                    <mxGeometry width="50" height="50" relative="1" as="geometry">
                        <mxPoint x="760" y="400" as="sourcePoint"/>
                        <mxPoint x="80" y="400" as="targetPoint"/>
                    </mxGeometry>
                </mxCell>
                <mxCell id="12" value="" style="endArrow=classic;html=1;rounded=1;strokeColor=#FFFF33;fontSize=20;fontColor=#FFFF33;" parent="1" edge="1">
                    <mxGeometry width="50" height="50" relative="1" as="geometry">
                        <mxPoint x="80" y="400" as="sourcePoint"/>
                        <mxPoint x="80" y="440" as="targetPoint"/>
                    </mxGeometry>
                </mxCell>
                <mxCell id="13" value="" style="endArrow=classic;html=1;rounded=1;strokeColor=#FFFF33;fontSize=20;fontColor=#FFFF33;" parent="1" edge="1">
                    <mxGeometry width="50" height="50" relative="1" as="geometry">
                        <mxPoint x="760" y="400" as="sourcePoint"/>
                        <mxPoint x="760" y="440" as="targetPoint"/>
                    </mxGeometry>
                </mxCell>
                <mxCell id="14" value="创建目录" style="rounded=0;whiteSpace=wrap;html=1;strokeColor=#FFFF33;fontSize=20;fontColor=#FFFF33;" parent="1" vertex="1">
                    <mxGeometry x="60" y="440" width="40" height="160" as="geometry"/>
                </mxCell>
                <mxCell id="15" value="" style="endArrow=classic;html=1;rounded=1;strokeColor=#FFFF33;fontSize=20;fontColor=#FFFF33;" parent="1" edge="1">
                    <mxGeometry width="50" height="50" relative="1" as="geometry">
                        <mxPoint x="140" y="400" as="sourcePoint"/>
                        <mxPoint x="140" y="440" as="targetPoint"/>
                    </mxGeometry>
                </mxCell>
                <mxCell id="16" value="" style="endArrow=classic;html=1;rounded=1;strokeColor=#FFFF33;fontSize=20;fontColor=#FFFF33;" parent="1" edge="1">
                    <mxGeometry width="50" height="50" relative="1" as="geometry">
                        <mxPoint x="200" y="400" as="sourcePoint"/>
                        <mxPoint x="200" y="440" as="targetPoint"/>
                    </mxGeometry>
                </mxCell>
                <mxCell id="17" value="" style="endArrow=classic;html=1;rounded=1;strokeColor=#FFFF33;fontSize=20;fontColor=#FFFF33;" parent="1" edge="1">
                    <mxGeometry width="50" height="50" relative="1" as="geometry">
                        <mxPoint x="260" y="400" as="sourcePoint"/>
                        <mxPoint x="260" y="440" as="targetPoint"/>
                    </mxGeometry>
                </mxCell>
                <mxCell id="18" value="" style="endArrow=classic;html=1;rounded=1;strokeColor=#FFFF33;fontSize=20;fontColor=#FFFF33;" parent="1" edge="1">
                    <mxGeometry width="50" height="50" relative="1" as="geometry">
                        <mxPoint x="320" y="400" as="sourcePoint"/>
                        <mxPoint x="320" y="440" as="targetPoint"/>
                    </mxGeometry>
                </mxCell>
                <mxCell id="19" value="" style="endArrow=classic;html=1;rounded=1;strokeColor=#FFFF33;fontSize=20;fontColor=#FFFF33;" parent="1" edge="1">
                    <mxGeometry width="50" height="50" relative="1" as="geometry">
                        <mxPoint x="380" y="400" as="sourcePoint"/>
                        <mxPoint x="380" y="440" as="targetPoint"/>
                    </mxGeometry>
                </mxCell>
                <mxCell id="20" value="" style="endArrow=classic;html=1;rounded=1;strokeColor=#FFFF33;fontSize=20;fontColor=#FFFF33;" parent="1" edge="1">
                    <mxGeometry width="50" height="50" relative="1" as="geometry">
                        <mxPoint x="440" y="400" as="sourcePoint"/>
                        <mxPoint x="440" y="440" as="targetPoint"/>
                    </mxGeometry>
                </mxCell>
                <mxCell id="21" value="" style="endArrow=classic;html=1;rounded=1;strokeColor=#FFFF33;fontSize=20;fontColor=#FFFF33;" parent="1" edge="1">
                    <mxGeometry width="50" height="50" relative="1" as="geometry">
                        <mxPoint x="500" y="400" as="sourcePoint"/>
                        <mxPoint x="500" y="440" as="targetPoint"/>
                    </mxGeometry>
                </mxCell>
                <mxCell id="22" value="" style="endArrow=classic;html=1;rounded=1;strokeColor=#FFFF33;fontSize=20;fontColor=#FFFF33;" parent="1" edge="1">
                    <mxGeometry width="50" height="50" relative="1" as="geometry">
                        <mxPoint x="560" y="400" as="sourcePoint"/>
                        <mxPoint x="560" y="440" as="targetPoint"/>
                    </mxGeometry>
                </mxCell>
                <mxCell id="23" value="" style="endArrow=classic;html=1;rounded=1;strokeColor=#FFFF33;fontSize=20;fontColor=#FFFF33;" parent="1" edge="1">
                    <mxGeometry width="50" height="50" relative="1" as="geometry">
                        <mxPoint x="620" y="400" as="sourcePoint"/>
                        <mxPoint x="620" y="440" as="targetPoint"/>
                    </mxGeometry>
                </mxCell>
                <mxCell id="24" value="" style="endArrow=classic;html=1;rounded=1;strokeColor=#FFFF33;fontSize=20;fontColor=#FFFF33;" parent="1" edge="1">
                    <mxGeometry width="50" height="50" relative="1" as="geometry">
                        <mxPoint x="680" y="400" as="sourcePoint"/>
                        <mxPoint x="680" y="440" as="targetPoint"/>
                    </mxGeometry>
                </mxCell>
                <mxCell id="25" value="删除目录" style="rounded=0;whiteSpace=wrap;html=1;strokeColor=#FFFF33;fontSize=20;fontColor=#FFFF33;" parent="1" vertex="1">
                    <mxGeometry x="120" y="440" width="40" height="160" as="geometry"/>
                </mxCell>
                <mxCell id="26" value="重命名目录" style="rounded=0;whiteSpace=wrap;html=1;strokeColor=#FFFF33;fontSize=20;fontColor=#FFFF33;" parent="1" vertex="1">
                    <mxGeometry x="180" y="440" width="40" height="160" as="geometry"/>
                </mxCell>
                <mxCell id="27" value="更改目录权限" style="rounded=0;whiteSpace=wrap;html=1;strokeColor=#FFFF33;fontSize=20;fontColor=#FFFF33;" parent="1" vertex="1">
                    <mxGeometry x="240" y="440" width="40" height="160" as="geometry"/>
                </mxCell>
                <mxCell id="28" value="创建文件" style="rounded=0;whiteSpace=wrap;html=1;strokeColor=#FFFF33;fontSize=20;fontColor=#FFFF33;" parent="1" vertex="1">
                    <mxGeometry x="300" y="440" width="40" height="160" as="geometry"/>
                </mxCell>
                <mxCell id="29" value="删除文件" style="rounded=0;whiteSpace=wrap;html=1;strokeColor=#FFFF33;fontSize=20;fontColor=#FFFF33;" parent="1" vertex="1">
                    <mxGeometry x="360" y="440" width="40" height="160" as="geometry"/>
                </mxCell>
                <mxCell id="30" value="重命名文件" style="rounded=0;whiteSpace=wrap;html=1;strokeColor=#FFFF33;fontSize=20;fontColor=#FFFF33;" parent="1" vertex="1">
                    <mxGeometry x="420" y="440" width="40" height="160" as="geometry"/>
                </mxCell>
                <mxCell id="31" value="显示文件内容" style="rounded=0;whiteSpace=wrap;html=1;strokeColor=#FFFF33;fontSize=20;fontColor=#FFFF33;" parent="1" vertex="1">
                    <mxGeometry x="480" y="440" width="40" height="160" as="geometry"/>
                </mxCell>
                <mxCell id="32" value="更改文件内容" style="rounded=0;whiteSpace=wrap;html=1;strokeColor=#FFFF33;fontSize=20;fontColor=#FFFF33;" parent="1" vertex="1">
                    <mxGeometry x="540" y="440" width="40" height="160" as="geometry"/>
                </mxCell>
                <mxCell id="33" value="更改文件权限" style="rounded=0;whiteSpace=wrap;html=1;strokeColor=#FFFF33;fontSize=20;fontColor=#FFFF33;" parent="1" vertex="1">
                    <mxGeometry x="600" y="440" width="40" height="160" as="geometry"/>
                </mxCell>
                <mxCell id="34" value="显示目录结构" style="rounded=0;whiteSpace=wrap;html=1;strokeColor=#FFFF33;fontSize=20;fontColor=#FFFF33;" parent="1" vertex="1">
                    <mxGeometry x="660" y="440" width="40" height="160" as="geometry"/>
                </mxCell>
                <mxCell id="35" value="退出" style="rounded=0;whiteSpace=wrap;html=1;strokeColor=#FFFF33;fontSize=20;fontColor=#FFFF33;" parent="1" vertex="1">
                    <mxGeometry x="740" y="440" width="40" height="160" as="geometry"/>
                </mxCell>
                <mxCell id="36" value="退出执行" style="rounded=1;whiteSpace=wrap;html=1;strokeColor=#FFFF33;fontSize=20;fontColor=#FFFF33;" parent="1" vertex="1">
                    <mxGeometry x="710" y="640" width="100" height="40" as="geometry"/>
                </mxCell>
                <mxCell id="37" value="" style="endArrow=classic;html=1;rounded=1;strokeColor=#FFFF33;fontSize=20;fontColor=#FFFF33;entryX=0.5;entryY=0;entryDx=0;entryDy=0;" parent="1" target="36" edge="1">
                    <mxGeometry width="50" height="50" relative="1" as="geometry">
                        <mxPoint x="760" y="600" as="sourcePoint"/>
                        <mxPoint x="810" y="550" as="targetPoint"/>
                    </mxGeometry>
                </mxCell>
                <mxCell id="38" value="" style="endArrow=none;html=1;rounded=1;strokeColor=#FFFF33;fontSize=20;fontColor=#FFFF33;" parent="1" edge="1">
                    <mxGeometry width="50" height="50" relative="1" as="geometry">
                        <mxPoint x="680" y="640" as="sourcePoint"/>
                        <mxPoint x="680" y="600" as="targetPoint"/>
                    </mxGeometry>
                </mxCell>
                <mxCell id="39" value="" style="endArrow=none;html=1;rounded=1;strokeColor=#FFFF33;fontSize=20;fontColor=#FFFF33;" parent="1" edge="1">
                    <mxGeometry width="50" height="50" relative="1" as="geometry">
                        <mxPoint y="640" as="sourcePoint"/>
                        <mxPoint x="680" y="640" as="targetPoint"/>
                    </mxGeometry>
                </mxCell>
                <mxCell id="40" value="" style="endArrow=none;html=1;rounded=1;strokeColor=#FFFF33;fontSize=20;fontColor=#FFFF33;" parent="1" edge="1">
                    <mxGeometry width="50" height="50" relative="1" as="geometry">
                        <mxPoint y="640" as="sourcePoint"/>
                        <mxPoint y="300" as="targetPoint"/>
                    </mxGeometry>
                </mxCell>
                <mxCell id="42" value="" style="endArrow=classic;html=1;rounded=1;strokeColor=#FFFF33;fontSize=20;fontColor=#FFFF33;" parent="1" edge="1">
                    <mxGeometry width="50" height="50" relative="1" as="geometry">
                        <mxPoint y="300" as="sourcePoint"/>
                        <mxPoint x="420" y="300" as="targetPoint"/>
                    </mxGeometry>
                </mxCell>
                <mxCell id="44" value="" style="endArrow=classic;html=1;rounded=1;strokeColor=#FFFF33;fontSize=20;fontColor=#FFFF33;" parent="1" edge="1">
                    <mxGeometry width="50" height="50" relative="1" as="geometry">
                        <mxPoint x="80" y="600" as="sourcePoint"/>
                        <mxPoint x="80" y="640" as="targetPoint"/>
                    </mxGeometry>
                </mxCell>
                <mxCell id="45" value="" style="endArrow=classic;html=1;rounded=1;strokeColor=#FFFF33;fontSize=20;fontColor=#FFFF33;exitX=0.5;exitY=1;exitDx=0;exitDy=0;" parent="1" source="25" edge="1">
                    <mxGeometry width="50" height="50" relative="1" as="geometry">
                        <mxPoint x="140" y="610" as="sourcePoint"/>
                        <mxPoint x="140" y="640" as="targetPoint"/>
                    </mxGeometry>
                </mxCell>
                <mxCell id="47" value="" style="endArrow=classic;html=1;rounded=1;strokeColor=#FFFF33;fontSize=20;fontColor=#FFFF33;" parent="1" edge="1">
                    <mxGeometry width="50" height="50" relative="1" as="geometry">
                        <mxPoint x="199.32999999999998" y="600" as="sourcePoint"/>
                        <mxPoint x="199.32999999999998" y="640" as="targetPoint"/>
                    </mxGeometry>
                </mxCell>
                <mxCell id="49" value="" style="endArrow=classic;html=1;rounded=1;strokeColor=#FFFF33;fontSize=20;fontColor=#FFFF33;" parent="1" edge="1">
                    <mxGeometry width="50" height="50" relative="1" as="geometry">
                        <mxPoint x="619.33" y="600" as="sourcePoint"/>
                        <mxPoint x="619.33" y="640" as="targetPoint"/>
                    </mxGeometry>
                </mxCell>
                <mxCell id="50" value="" style="endArrow=classic;html=1;rounded=1;strokeColor=#FFFF33;fontSize=20;fontColor=#FFFF33;" parent="1" edge="1">
                    <mxGeometry width="50" height="50" relative="1" as="geometry">
                        <mxPoint x="259.33" y="600" as="sourcePoint"/>
                        <mxPoint x="259.33" y="640" as="targetPoint"/>
                    </mxGeometry>
                </mxCell>
                <mxCell id="51" value="" style="endArrow=classic;html=1;rounded=1;strokeColor=#FFFF33;fontSize=20;fontColor=#FFFF33;" parent="1" edge="1">
                    <mxGeometry width="50" height="50" relative="1" as="geometry">
                        <mxPoint x="439.33" y="600" as="sourcePoint"/>
                        <mxPoint x="439.33" y="640" as="targetPoint"/>
                    </mxGeometry>
                </mxCell>
                <mxCell id="52" value="" style="endArrow=classic;html=1;rounded=1;strokeColor=#FFFF33;fontSize=20;fontColor=#FFFF33;" parent="1" edge="1">
                    <mxGeometry width="50" height="50" relative="1" as="geometry">
                        <mxPoint x="379.33" y="600" as="sourcePoint"/>
                        <mxPoint x="379.33" y="640" as="targetPoint"/>
                    </mxGeometry>
                </mxCell>
                <mxCell id="53" value="" style="endArrow=classic;html=1;rounded=1;strokeColor=#FFFF33;fontSize=20;fontColor=#FFFF33;" parent="1" edge="1">
                    <mxGeometry width="50" height="50" relative="1" as="geometry">
                        <mxPoint x="499.33" y="600" as="sourcePoint"/>
                        <mxPoint x="499.33" y="640" as="targetPoint"/>
                    </mxGeometry>
                </mxCell>
                <mxCell id="54" value="" style="endArrow=classic;html=1;rounded=1;strokeColor=#FFFF33;fontSize=20;fontColor=#FFFF33;" parent="1" edge="1">
                    <mxGeometry width="50" height="50" relative="1" as="geometry">
                        <mxPoint x="560" y="600" as="sourcePoint"/>
                        <mxPoint x="560" y="640" as="targetPoint"/>
                    </mxGeometry>
                </mxCell>
                <mxCell id="55" value="" style="endArrow=classic;html=1;rounded=1;strokeColor=#FFFF33;fontSize=20;fontColor=#FFFF33;" parent="1" edge="1">
                    <mxGeometry width="50" height="50" relative="1" as="geometry">
                        <mxPoint x="319.33" y="600" as="sourcePoint"/>
                        <mxPoint x="319.33" y="640" as="targetPoint"/>
                    </mxGeometry>
                </mxCell>
            </root>
        </mxGraphModel>
    </diagram>
    <diagram id="o24yqSP57vGetslMusmw" name="第 2 页">
        <mxGraphModel dx="1628" dy="1750" grid="0" gridSize="10" guides="1" tooltips="1" connect="1" arrows="1" fold="1" page="0" pageScale="1" pageWidth="1169" pageHeight="827" math="0" shadow="0">
            <root>
                <mxCell id="0"/>
                <mxCell id="1" parent="0"/>
                <mxCell id="RywWBfG_3FZ6wy2KoFY1-1" value="&lt;font color=&quot;#ffff33&quot; style=&quot;font-size: 20px;&quot;&gt;开始&lt;/font&gt;" style="rounded=1;whiteSpace=wrap;html=1;strokeColor=#FFFF33;" vertex="1" parent="1">
                    <mxGeometry x="360" y="-440" width="120" height="40" as="geometry"/>
                </mxCell>
                <mxCell id="RywWBfG_3FZ6wy2KoFY1-2" value="输入目录名" style="shape=parallelogram;perimeter=parallelogramPerimeter;whiteSpace=wrap;html=1;fixedSize=1;strokeColor=#FFFF33;fontSize=20;fontColor=#FFFF33;" vertex="1" parent="1">
                    <mxGeometry x="280" y="-360" width="280" height="40" as="geometry"/>
                </mxCell>
                <mxCell id="RywWBfG_3FZ6wy2KoFY1-4" value="目标目录为根目录？" style="rhombus;whiteSpace=wrap;html=1;strokeColor=#FFFF33;fontSize=20;fontColor=#FFFF33;" vertex="1" parent="1">
                    <mxGeometry x="280" y="-280" width="280" height="80" as="geometry"/>
                </mxCell>
                <mxCell id="RywWBfG_3FZ6wy2KoFY1-6" value="显示根目录不能改权限，返回" style="rounded=0;whiteSpace=wrap;html=1;strokeColor=#FFFF33;fontSize=20;fontColor=#FFFF33;" vertex="1" parent="1">
                    <mxGeometry x="640" y="-280" width="160" height="80" as="geometry"/>
                </mxCell>
                <mxCell id="RywWBfG_3FZ6wy2KoFY1-7" value="输入新权限" style="shape=parallelogram;perimeter=parallelogramPerimeter;whiteSpace=wrap;html=1;fixedSize=1;strokeColor=#FFFF33;fontSize=20;fontColor=#FFFF33;" vertex="1" parent="1">
                    <mxGeometry x="280" y="-40" width="280" height="40" as="geometry"/>
                </mxCell>
                <mxCell id="RywWBfG_3FZ6wy2KoFY1-11" value="修改目录权限" style="rounded=0;whiteSpace=wrap;html=1;strokeColor=#FFFF33;fontSize=20;fontColor=#FFFF33;" vertex="1" parent="1">
                    <mxGeometry x="320" y="40" width="200" height="60" as="geometry"/>
                </mxCell>
                <mxCell id="RywWBfG_3FZ6wy2KoFY1-13" value="显示更改目录权限成功" style="rounded=0;whiteSpace=wrap;html=1;strokeColor=#FFFF33;fontSize=20;fontColor=#FFFF33;" vertex="1" parent="1">
                    <mxGeometry x="280" y="160" width="280" height="60" as="geometry"/>
                </mxCell>
                <mxCell id="RywWBfG_3FZ6wy2KoFY1-15" value="&lt;font color=&quot;#ffff33&quot; style=&quot;font-size: 20px;&quot;&gt;返回&lt;/font&gt;" style="rounded=1;whiteSpace=wrap;html=1;strokeColor=#FFFF33;" vertex="1" parent="1">
                    <mxGeometry x="360" y="280" width="120" height="40" as="geometry"/>
                </mxCell>
                <mxCell id="RywWBfG_3FZ6wy2KoFY1-16" value="" style="endArrow=classic;html=1;fontSize=20;fontColor=#FFFF33;entryX=0.5;entryY=0;entryDx=0;entryDy=0;strokeColor=#FFFF33;" edge="1" parent="1" target="RywWBfG_3FZ6wy2KoFY1-2">
                    <mxGeometry width="50" height="50" relative="1" as="geometry">
                        <mxPoint x="420" y="-400" as="sourcePoint"/>
                        <mxPoint x="470" y="-450" as="targetPoint"/>
                    </mxGeometry>
                </mxCell>
                <mxCell id="RywWBfG_3FZ6wy2KoFY1-20" value="" style="endArrow=classic;html=1;strokeColor=#FFFF33;fontSize=20;fontColor=#FFFF33;entryX=0;entryY=0.5;entryDx=0;entryDy=0;" edge="1" parent="1" target="RywWBfG_3FZ6wy2KoFY1-6">
                    <mxGeometry width="50" height="50" relative="1" as="geometry">
                        <mxPoint x="560" y="-240" as="sourcePoint"/>
                        <mxPoint x="610" y="-290" as="targetPoint"/>
                    </mxGeometry>
                </mxCell>
                <mxCell id="RywWBfG_3FZ6wy2KoFY1-22" value="" style="endArrow=classic;html=1;strokeColor=#FFFF33;fontSize=20;fontColor=#FFFF33;entryX=0.5;entryY=0;entryDx=0;entryDy=0;" edge="1" parent="1">
                    <mxGeometry width="50" height="50" relative="1" as="geometry">
                        <mxPoint x="420" as="sourcePoint"/>
                        <mxPoint x="420" y="40" as="targetPoint"/>
                    </mxGeometry>
                </mxCell>
                <mxCell id="RywWBfG_3FZ6wy2KoFY1-25" value="" style="endArrow=classic;html=1;strokeColor=#FFFF33;fontSize=20;fontColor=#FFFF33;entryX=0.5;entryY=0;entryDx=0;entryDy=0;" edge="1" parent="1" target="RywWBfG_3FZ6wy2KoFY1-13">
                    <mxGeometry width="50" height="50" relative="1" as="geometry">
                        <mxPoint x="420" y="100" as="sourcePoint"/>
                        <mxPoint x="470" y="50" as="targetPoint"/>
                    </mxGeometry>
                </mxCell>
                <mxCell id="RywWBfG_3FZ6wy2KoFY1-26" value="" style="endArrow=classic;html=1;strokeColor=#FFFF33;fontSize=20;fontColor=#FFFF33;" edge="1" parent="1" target="RywWBfG_3FZ6wy2KoFY1-15">
                    <mxGeometry width="50" height="50" relative="1" as="geometry">
                        <mxPoint x="420" y="220" as="sourcePoint"/>
                        <mxPoint x="470" y="170" as="targetPoint"/>
                    </mxGeometry>
                </mxCell>
                <mxCell id="RywWBfG_3FZ6wy2KoFY1-29" value="N" style="text;html=1;align=center;verticalAlign=middle;resizable=0;points=[];autosize=1;strokeColor=none;fillColor=none;fontSize=20;fontColor=#FFFF33;" vertex="1" parent="1">
                    <mxGeometry x="360" y="-200" width="40" height="40" as="geometry"/>
                </mxCell>
                <mxCell id="RywWBfG_3FZ6wy2KoFY1-30" value="Y" style="text;html=1;align=center;verticalAlign=middle;resizable=0;points=[];autosize=1;strokeColor=none;fillColor=none;fontSize=20;fontColor=#FFFF33;" vertex="1" parent="1">
                    <mxGeometry x="560" y="-280" width="40" height="40" as="geometry"/>
                </mxCell>
                <mxCell id="RywWBfG_3FZ6wy2KoFY1-35" value="是否存在此目录" style="rhombus;whiteSpace=wrap;html=1;strokeColor=#FFFF33;fontSize=20;fontColor=#FFFF33;" vertex="1" parent="1">
                    <mxGeometry x="280" y="-160" width="280" height="80" as="geometry"/>
                </mxCell>
                <mxCell id="RywWBfG_3FZ6wy2KoFY1-36" value="显示目录不存在，返回" style="rounded=0;whiteSpace=wrap;html=1;strokeColor=#FFFF33;fontSize=20;fontColor=#FFFF33;" vertex="1" parent="1">
                    <mxGeometry x="640" y="-160" width="160" height="80" as="geometry"/>
                </mxCell>
                <mxCell id="RywWBfG_3FZ6wy2KoFY1-37" value="Y" style="text;html=1;align=center;verticalAlign=middle;resizable=0;points=[];autosize=1;strokeColor=none;fillColor=none;fontSize=20;fontColor=#FFFF33;" vertex="1" parent="1">
                    <mxGeometry x="360" y="-80" width="40" height="40" as="geometry"/>
                </mxCell>
                <mxCell id="RywWBfG_3FZ6wy2KoFY1-38" value="" style="endArrow=classic;html=1;strokeColor=#FFFF33;fontSize=20;fontColor=#FFFF33;entryX=0.5;entryY=0;entryDx=0;entryDy=0;" edge="1" parent="1" target="RywWBfG_3FZ6wy2KoFY1-35">
                    <mxGeometry width="50" height="50" relative="1" as="geometry">
                        <mxPoint x="420" y="-200" as="sourcePoint"/>
                        <mxPoint x="470" y="-250" as="targetPoint"/>
                    </mxGeometry>
                </mxCell>
                <mxCell id="RywWBfG_3FZ6wy2KoFY1-39" value="" style="endArrow=classic;html=1;strokeColor=#FFFF33;fontSize=20;fontColor=#FFFF33;entryX=0.5;entryY=0;entryDx=0;entryDy=0;" edge="1" parent="1" target="RywWBfG_3FZ6wy2KoFY1-7">
                    <mxGeometry width="50" height="50" relative="1" as="geometry">
                        <mxPoint x="420" y="-80" as="sourcePoint"/>
                        <mxPoint x="470" y="-130" as="targetPoint"/>
                    </mxGeometry>
                </mxCell>
                <mxCell id="RywWBfG_3FZ6wy2KoFY1-40" value="" style="endArrow=classic;html=1;strokeColor=#FFFF33;fontSize=20;fontColor=#FFFF33;entryX=0;entryY=0.5;entryDx=0;entryDy=0;" edge="1" parent="1" target="RywWBfG_3FZ6wy2KoFY1-36">
                    <mxGeometry width="50" height="50" relative="1" as="geometry">
                        <mxPoint x="560" y="-120" as="sourcePoint"/>
                        <mxPoint x="610" y="-170" as="targetPoint"/>
                    </mxGeometry>
                </mxCell>
                <mxCell id="RywWBfG_3FZ6wy2KoFY1-41" value="" style="endArrow=classic;html=1;strokeColor=#FFFF33;fontSize=20;fontColor=#FFFF33;entryX=0.5;entryY=0;entryDx=0;entryDy=0;" edge="1" parent="1" target="RywWBfG_3FZ6wy2KoFY1-4">
                    <mxGeometry width="50" height="50" relative="1" as="geometry">
                        <mxPoint x="420" y="-320" as="sourcePoint"/>
                        <mxPoint x="470" y="-370" as="targetPoint"/>
                    </mxGeometry>
                </mxCell>
                <mxCell id="RywWBfG_3FZ6wy2KoFY1-42" value="N" style="text;html=1;align=center;verticalAlign=middle;resizable=0;points=[];autosize=1;strokeColor=none;fillColor=none;fontSize=20;fontColor=#FFFF33;" vertex="1" parent="1">
                    <mxGeometry x="560" y="-160" width="40" height="40" as="geometry"/>
                </mxCell>
            </root>
        </mxGraphModel>
    </diagram>
</mxfile>